<svg width="411" height="822" viewBox="0 0 411 822" fill="none" xmlns="http://www.w3.org/2000/svg">
<rect width="411" height="822" fill="#E5E5E5"/>
<g clip-path="url(#clip0)">
<rect width="411" height="822" fill="white"/>
<path d="M47 0L87.7032 74.25H6.29681L47 0Z" transform="translate(56 70)" fill="#C4C4C4"/>
<path d="M47 0L87.7032 74.25H6.29681L47 0Z" transform="translate(229 509)" fill="#C4C4C4"/>
<path d="M47 0L87.7032 74.25H6.29681L47 0Z" transform="translate(56 169)" fill="#C4C4C4"/>
<path d="M47 0L87.7032 74.25H6.29681L47 0Z" transform="translate(56 268)" fill="#C4C4C4"/>
<path d="M190.196 0.353553C190.391 0.158291 190.391 -0.158291 190.196 -0.353553L187.014 -3.53553C186.818 -3.7308 186.502 -3.7308 186.307 -3.53553C186.111 -3.34027 186.111 -3.02369 186.307 -2.82843L189.135 0L186.307 2.82843C186.111 3.02369 186.111 3.34027 186.307 3.53553C186.502 3.7308 186.818 3.7308 187.014 3.53553L190.196 0.353553ZM0 0.5H189.842V-0.5H0V0.5Z" transform="translate(229 509) rotate(-131.583)" fill="black"/>
<path d="M55.9088 275.5C16.3088 299.9 47.4088 321.667 67.9088 329.5L20.9088 357.5C34.5755 368.333 63.1088 389.4 67.9088 387C72.7088 384.6 38.5755 401.667 20.9088 410.5C25.9088 328.333 29.6088 186.3 4.40879 275.5C-27.0912 387 120.909 466 109.909 357.5C98.9088 249 85.4088 242.5 67.9088 303C50.4088 363.5 157.909 286.5 148.909 344C139.909 401.5 111.409 272 167.409 329.5C223.409 387 372.909 356 256.409 329.5C139.909 303 72.9088 369.5 159.909 387C246.909 404.5 326.909 385.5 237.909 395C148.909 404.5 65.9088 434.5 173.409 426C280.909 417.5 396.909 350 400.909 344C404.109 339.2 477.242 112.667 513.409 0L609.409 337" transform="translate(68 360)" stroke="black"/>
<path d="M19.2305 80.8438C21.9258 80.8438 24.4688 80.293 26.8594 79.1914C29.2734 78.0664 31.207 76.4844 32.6602 74.4453C34.1367 72.4062 34.875 70.0742 34.875 67.4492C34.875 65.5742 34.3945 63.9453 33.4336 62.5625C32.4727 61.1797 31.3008 60.0195 29.918 59.082C28.5352 58.1211 26.6719 57.0195 24.3281 55.7773C22.0781 54.5586 20.2969 53.5156 18.9844 52.6484C17.6953 51.7812 16.5938 50.7148 15.6797 49.4492C14.7891 48.1836 14.3438 46.707 14.3438 45.0195C14.3438 42.8164 14.9414 41.1523 16.1367 40.0273C17.332 38.9023 18.8672 38.3398 20.7422 38.3398C21.6094 38.3398 22.4648 38.5273 23.3086 38.9023C24.1523 39.2539 24.8672 39.6992 25.4531 40.2383C26.0625 40.7539 26.4844 41.2344 26.7188 41.6797L27.5977 48.3945L31.0781 48.8164C31.1484 47.8086 31.2773 46.1797 31.4648 43.9297C31.6523 41.6797 31.7812 40.0039 31.8516 38.9023C29.0391 36.5586 25.7344 35.3867 21.9375 35.3867C19.5703 35.3867 17.3438 35.8789 15.2578 36.8633C13.1719 37.8477 11.4844 39.2773 10.1953 41.1523C8.90625 43.0273 8.26172 45.2422 8.26172 47.7969C8.26172 50 8.78906 51.9102 9.84375 53.5273C10.9219 55.1445 12.2109 56.4805 13.7109 57.5352C15.2344 58.5664 17.2266 59.7383 19.6875 61.0508C21.6797 62.1289 23.2383 63.043 24.3633 63.793C25.5117 64.543 26.4727 65.4336 27.2461 66.4648C28.0195 67.4727 28.4062 68.6211 28.4062 69.9102C28.4062 71.5508 27.9844 72.9219 27.1406 74.0234C26.3203 75.125 25.2656 75.9453 23.9766 76.4844C22.7109 77.0234 21.4102 77.293 20.0742 77.293C18.5273 77.293 17.0977 76.9531 15.7852 76.2734C14.4961 75.5938 13.5117 74.7617 12.832 73.7773L11.4609 67.168L7.875 66.6758L7.41797 76.7656C8.61328 77.9375 10.2656 78.9102 12.375 79.6836C14.5078 80.457 16.793 80.8438 19.2305 80.8438ZM43.6289 40.4141V75.7461L37.7578 77.3984L37.4766 80H56.4609L56.8125 77.1875L50.4492 75.9922V40.2734L56.3906 38.9375L56.7422 36.2656H37.6172L37.2305 38.9375L43.6289 40.4141ZM79.5234 80.8438C81.8203 80.8438 84.0234 80.4805 86.1328 79.7539C88.2656 79.0273 90.1523 78.1133 91.793 77.0117C93.4336 75.8867 94.7578 74.7148 95.7656 73.4961L94.5352 70.8242C92.8711 72.3477 90.9492 73.6133 88.7695 74.6211C86.6133 75.6055 84.4336 76.0977 82.2305 76.0977C79.3711 76.0977 76.7344 75.3594 74.3203 73.8828C71.9062 72.3828 69.9609 70.1914 68.4844 67.3086C67.0312 64.4023 66.3047 60.9219 66.3047 56.8672C66.3047 53.1875 66.8789 49.9766 68.0273 47.2344C69.1758 44.4922 70.7344 42.3945 72.7031 40.9414C74.6953 39.4648 76.9219 38.7266 79.3828 38.7266C81.5391 38.7266 83.3672 39.0547 84.8672 39.7109C86.3906 40.3672 87.5859 41.2578 88.4531 42.3828L89.9297 50.1172L93.0234 50.5742L94.1133 38.9023C92.5195 37.6836 90.6211 36.793 88.418 36.2305C86.2148 35.668 83.8711 35.3867 81.3867 35.3867C76.3477 35.3867 72.1289 36.6055 68.7305 39.043C65.332 41.457 62.8242 44.5039 61.207 48.1836C59.5898 51.8398 58.7812 55.543 58.7812 59.293C58.7812 63.793 59.7305 67.6719 61.6289 70.9297C63.5508 74.1875 66.0938 76.6602 69.2578 78.3477C72.4219 80.0117 75.8438 80.8438 79.5234 80.8438ZM104.027 40.7305V75.4648L97.9805 77.3984L97.6289 80H117.07L117.457 77.1875L110.812 75.6406V40.5898L116.859 38.9375L117.211 36.2656H97.875L97.3828 38.9375L104.027 40.7305ZM120.551 70.8242C122.848 73.9883 125.109 76.4375 127.336 78.1719C129.562 79.8828 132.023 80.7383 134.719 80.7383C136.312 80.7383 137.848 80.4805 139.324 79.9648L139.676 77.5391L138.375 77.082C136.922 76.6367 135.609 76.0039 134.438 75.1836C133.266 74.3398 132.094 73.2969 130.922 72.0547C129.773 70.8125 128.145 68.9492 126.035 66.4648L118.055 57.043L131.168 40.5898L137.391 38.9375L137.812 36.2656H120.48L120.199 38.9375L125.648 40.5898L117 51.9453C116.484 52.6016 115.594 53.6445 114.328 55.0742C113.086 56.4805 112.195 57.4531 111.656 57.9922L111.691 58.7305L120.551 70.8242Z" transform="translate(216 51)" fill="black"/>
<path d="M2.06787 34C-0.570429 47.5213 0.0678726 61.1604 0.0678726 75C0.0678726 82.6974 1.36391 90.0822 3.01232 97.5C4.8625 105.826 10.7893 109.833 16.5679 115.611C22.6778 121.721 27.3967 129.662 33.0679 136C37.6235 141.092 38.6448 150.68 47.2901 151C54.945 151.284 59.0742 150.925 65.9568 146.5C71.8728 142.697 77.3506 138.954 83.5679 135.5C97.0854 127.99 110.23 123.988 119.568 110.5C124.079 103.985 125.068 91.7236 125.068 84C125.068 81.7473 125.987 79.8807 126.068 77.7778C126.177 74.9446 125.427 75.8126 127.068 76.7778C130.049 78.5314 130.829 78.4824 134.068 76.7778C142.938 72.1091 151.626 57.7004 151.012 47.8889C150.593 41.172 148.103 38.1054 142.401 35.4444C137.877 33.3329 130.512 31.6666 126.623 35.5556C123.485 38.6944 126.886 31.3408 125.846 29C124.971 27.033 125.445 25.2436 124.846 23.2222C124.347 21.5386 122.943 20.7654 122.29 19.2222C120.724 15.52 116.068 14.5409 116.068 10C116.068 7.6068 117.086 1.00931 115.068 0" transform="translate(231.391 301.84)" stroke="black" stroke-linecap="round" stroke-linejoin="round"/>
<path d="M0 56C6.17731 47.8459 9 41.4609 9 31.3333C9 20.8889 9 10.4444 9 0" transform="translate(383.459 285.84)" stroke="black" stroke-linecap="round" stroke-linejoin="round"/>
<path d="M3.60055 0C0.023376 6.00965 -2.6909 11.8126 4.60055 16.5C6.38122 17.6447 16.8145 20.428 15.6005 18" transform="translate(277.859 373.84)" stroke="black" stroke-linecap="round" stroke-linejoin="round"/>
<path d="M0 0C5.52213 5.35479 13.9699 10 22 10C27.8253 10 37.7478 5.63039 40 0" transform="translate(269.459 408.84)" stroke="black" stroke-linecap="round" stroke-linejoin="round"/>
<path d="M0 0C3.56141 5.28815 11.0097 11.0291 13 17" transform="translate(315.459 329.84)" stroke="black" stroke-linecap="round" stroke-linejoin="round"/>
<path d="M0 12C4.29736 9.0778 10.2593 5.22202 12 0" transform="translate(313.459 329.84)" stroke="black" stroke-linecap="round" stroke-linejoin="round"/>
<path d="M0 0C2.46114 4.57069 5.18037 8.6767 9.22222 12C10.8458 13.3349 12.3417 14.0251 13 16" transform="translate(259.459 329.84)" stroke="black" stroke-linecap="round" stroke-linejoin="round"/>
<path d="M0 12.0569C1.40211 10.6147 9.92191 -0.904101 8 0.0568558" transform="translate(260.459 331.783)" stroke="black" stroke-linecap="round" stroke-linejoin="round"/>
<path d="M16 6.82704C14.1663 4.40653 10.4398 -1.43852 6.55556 0.327041C2.7007 2.07925 0 5.63373 0 9.8826C0 15.1142 0.375402 18.688 3.44444 23.0493C4.84313 25.0369 9.18364 27.2761 10 24.827" transform="translate(216.459 335.012)" stroke="black" stroke-linecap="round" stroke-linejoin="round"/>
<path d="M245.459 0C214.216 5.51355 183.373 12.6623 151.904 16.5C136.888 18.3312 121.709 20.4387 106.793 23C97.5332 24.59 88.1769 28.0853 78.9592 29.0556C73.2311 29.6585 67.8868 30.8913 62.0148 31C56.2398 31.1069 48.6223 31.0097 42.9592 32.5C35.1615 34.552 25.2424 31.4538 17.9592 35.5C15.3832 36.9311 2.11751 38.7867 0.681464 35.5556C-4.49468 23.9092 21.3511 27 26.4592 27C35.6282 27 45.6176 24 55.237 24C65.8987 24 76.6775 22 87.4592 22" transform="translate(150 286.84)" stroke="black" stroke-linecap="round" stroke-linejoin="round"/>
<path d="M148.008 76.8395C145.971 61.3579 137.625 47.5079 129.508 34.3951C122.263 22.6927 115.157 11.479 102.674 4.72841C93.5096 -0.228069 83.4845 -0.436466 73.3967 0.339523C59.8018 1.38528 49.0883 3.20345 39.1189 13.1729C33.6849 18.6069 29.2356 25.0389 24.0633 30.7284C18.6346 36.7 13.4639 42.3221 9.50779 49.3951C4.35938 58.5998 0.127993 67.586 0.00779092 78.284C-0.103169 88.1594 1.00779 98.1335 1.00779 107.84" transform="translate(242.451 210)" stroke="black" stroke-linecap="round" stroke-linejoin="round"/>
<path d="M0 0C9.23587 20.4509 28.7543 34.5845 35 56.4444C36.5897 62.0083 38.1608 68.1356 36 73.7778C34.8752 76.7148 33.224 83 30 83" transform="translate(312.459 213.84)" stroke="black" stroke-linecap="round" stroke-linejoin="round"/>
<path d="M19.0167 5C9.66142 7.33883 -0.467894 8.38902 0.016734 19.7778C0.589779 33.2443 18.2016 37.576 29.0167 35.5556C41.141 33.2906 33.9373 15.2187 28.5723 9.55556C24.3719 5.12186 17.4741 0 11.0167 0" transform="translate(269.443 251.84)" stroke="black" stroke-linecap="round" stroke-linejoin="round"/>
</g>
<defs>
<clipPath id="clip0">
<rect width="411" height="822" fill="white"/>
</clipPath>
</defs>
</svg>
